<?xml version="1.0" standalone="no"?>
<!DOCTYPE svg PUBLIC "-//W3C//DTD SVG 20010904//EN"
 "http://www.w3.org/TR/2001/REC-SVG-20010904/DTD/svg10.dtd">
<svg version="1.0" xmlns="http://www.w3.org/2000/svg"
 width="100.000000pt" height="100.000000pt" viewBox="0 0 100.000000 100.000000"
 preserveAspectRatio="xMidYMid meet">
<metadata>
Created by potrace 1.11, written by Peter Selinger 2001-2013
</metadata>
<g transform="translate(0.000000,100.000000) scale(0.100000,-0.100000)"
fill="#000000" stroke="none">
<path d="M422 979 c-61 -31 -92 -87 -94 -173 l-2 -66 -40 0 c-72 -1 -91 -29
-100 -156 -3 -43 -8 -99 -11 -124 -4 -44 -9 -93 -20 -235 -4 -38 -8 -87 -11
-109 -7 -49 10 -90 42 -105 17 -7 123 -11 324 -11 l298 0 26 31 c25 29 26 35
20 108 -3 42 -7 88 -9 102 -2 14 -6 66 -10 115 -3 49 -8 100 -10 114 -2 14 -7
66 -11 115 -7 107 -22 141 -65 150 -17 4 -33 4 -37 0 -4 -3 -7 -30 -7 -58 0
-39 -4 -52 -16 -55 -13 -2 -16 14 -17 123 -1 116 -3 130 -26 170 -46 78 -140
105 -224 64z m156 -38 c41 -28 62 -79 62 -145 l0 -55 -122 -3 -123 -3 -2 -35
c0 -19 -1 -45 -2 -57 -1 -13 -7 -23 -16 -23 -24 0 -21 222 3 270 36 72 135 97
200 51z m-163 -731 c0 -12 -15 -15 -68 -16 -37 -1 -70 3 -73 7 -12 20 10 28
74 26 52 -2 67 -5 67 -17z m2 -74 c15 -15 -16 -26 -78 -26 -53 0 -69 3 -69 14
0 8 6 16 13 19 16 5 127 0 134 -7z"/>
</g>
</svg>
